<svg width="200" height="200" viewBox="0 0 200 200" fill="none" xmlns="http://www.w3.org/2000/svg">
<rect width="200" height="200" rx="100" fill="#F3F6FA"/>
<rect width="138.095" height="138.095" transform="translate(28.5715 30.9521)" fill="#F3F6FA"/>
<g style="mix-blend-mode:multiply" opacity="0.9">
<circle cx="133.761" cy="133.984" r="16.7225" fill="url(#paint0_linear_2877_1629)"/>
</g>
<path fill-rule="evenodd" clip-rule="evenodd" d="M83.594 50.3774C83.4149 50.3736 83.2351 50.3717 83.0545 50.3717C63.3917 50.3717 42.5969 72.8324 42.5969 100.539C42.5969 128.246 63.3917 150.707 83.0545 150.707C83.2351 150.707 83.4149 150.705 83.594 150.701V150.707H112.723V117.262H91.6855L91.146 117.262V117.248C83.9481 116.897 78.1996 109.551 78.1996 100.539C78.1996 91.5276 83.9481 84.1809 91.146 83.8298V83.8167H91.667C91.6732 83.8167 91.6793 83.8167 91.6855 83.8167C91.6916 83.8167 91.6977 83.8167 91.7039 83.8167H112.337H122.433L143.471 50.3717H83.594V50.3774Z" fill="url(#paint1_linear_2877_1629)"/>
<defs>
<linearGradient id="paint0_linear_2877_1629" x1="105.938" y1="174.871" x2="109.33" y2="95.6893" gradientUnits="userSpaceOnUse">
<stop offset="0.0880824" stop-color="#75F1C9"/>
<stop offset="0.314618" stop-color="#1DCF96"/>
<stop offset="0.640668" stop-color="#53A9DA"/>
<stop offset="0.838542" stop-color="#5D5FEF"/>
<stop offset="0.958333" stop-color="#7879F1"/>
</linearGradient>
<linearGradient id="paint1_linear_2877_1629" x1="46.9124" y1="150.707" x2="145.548" y2="42.5075" gradientUnits="userSpaceOnUse">
<stop stop-color="#2CD59F"/>
<stop offset="0.15625" stop-color="#1DCF96"/>
<stop offset="0.432292" stop-color="#53A9DA"/>
<stop offset="0.838542" stop-color="#5D5FEF"/>
<stop offset="0.958333" stop-color="#7879F1"/>
</linearGradient>
</defs>
</svg>
