<svg width="19" height="19" viewBox="0 0 19 19" fill="none" xmlns="http://www.w3.org/2000/svg">
<rect width="18.7536" height="18.7536" rx="9.37682" fill="#F3F6FA"/>
<rect width="12.9489" height="12.9489" transform="translate(2.6792 2.90234)" fill="#F3F6FA"/>
<g style="mix-blend-mode:multiply" opacity="0.9">
<circle cx="12.5426" cy="12.5634" r="1.56804" fill="url(#paint0_linear_44_2)"/>
</g>
<path fill-rule="evenodd" clip-rule="evenodd" d="M7.83855 14.1315H10.57V10.9954H10.5335L10.5335 10.9954H8.59725H8.54644V10.9941C7.87161 10.9611 7.33271 10.2723 7.33271 9.42735C7.33271 8.58245 7.87161 7.89363 8.54644 7.86056V7.85932H8.59725H11.4802V7.8594H11.4804L13.4531 4.72332H7.83855V4.72379C7.82169 4.72343 7.80477 4.72325 7.78777 4.72325C5.94403 4.72325 3.99414 6.82935 3.99414 9.42736C3.99414 12.0254 5.94403 14.1315 7.78777 14.1315C7.80477 14.1315 7.82169 14.1313 7.83855 14.1309V14.1315Z" fill="url(#paint1_linear_44_2)"/>
<defs>
<linearGradient id="paint0_linear_44_2" x1="9.93372" y1="16.3973" x2="10.2518" y2="8.97256" gradientUnits="userSpaceOnUse">
<stop offset="0.0880824" stop-color="#75F1C9"/>
<stop offset="0.314618" stop-color="#1DCF96"/>
<stop offset="0.640668" stop-color="#53A9DA"/>
<stop offset="0.838542" stop-color="#5D5FEF"/>
<stop offset="0.958333" stop-color="#7879F1"/>
</linearGradient>
<linearGradient id="paint1_linear_44_2" x1="4.39879" y1="14.1315" x2="13.6477" y2="3.98584" gradientUnits="userSpaceOnUse">
<stop stop-color="#2CD59F"/>
<stop offset="0.15625" stop-color="#1DCF96"/>
<stop offset="0.432292" stop-color="#53A9DA"/>
<stop offset="0.838542" stop-color="#5D5FEF"/>
<stop offset="0.958333" stop-color="#7879F1"/>
</linearGradient>
</defs>
</svg>
