<svg width="81" height="81" viewBox="0 0 81 81" fill="none" xmlns="http://www.w3.org/2000/svg">
<rect width="80.0804" height="80.0804" rx="40.0402" fill="#F3F6FA"/>
<rect width="55.2936" height="55.2936" transform="translate(11.4399 12.3934)" fill="#F3F6FA"/>
<g style="mix-blend-mode:multiply" opacity="0.9">
<circle cx="53.5585" cy="53.6476" r="6.69572" fill="url(#paint0_linear_44_2)"/>
</g>
<path fill-rule="evenodd" clip-rule="evenodd" d="M33.4709 20.1714C33.3992 20.1699 33.3273 20.1691 33.255 20.1691C25.3819 20.1691 17.0557 29.1624 17.0557 40.2562C17.0557 51.3501 25.3819 60.3434 33.255 60.3434C33.3273 60.3434 33.3992 60.3426 33.4709 60.3411V60.3434H45.1345V46.9519H36.7111H36.495V46.9467C33.613 46.806 31.3113 43.8644 31.3113 40.2562C31.3113 36.648 33.613 33.7064 36.495 33.5658V33.5605H36.7111H49.0223L57.4459 20.1691H33.4709V20.1714Z" fill="url(#paint1_linear_44_2)"/>
<defs>
<linearGradient id="paint0_linear_44_2" x1="42.4181" y1="70.0187" x2="43.7763" y2="38.3143" gradientUnits="userSpaceOnUse">
<stop offset="0.0880824" stop-color="#75F1C9"/>
<stop offset="0.314618" stop-color="#1DCF96"/>
<stop offset="0.640668" stop-color="#53A9DA"/>
<stop offset="0.838542" stop-color="#5D5FEF"/>
<stop offset="0.958333" stop-color="#7879F1"/>
</linearGradient>
<linearGradient id="paint1_linear_44_2" x1="18.7836" y1="60.3434" x2="58.2775" y2="17.0202" gradientUnits="userSpaceOnUse">
<stop stop-color="#2CD59F"/>
<stop offset="0.15625" stop-color="#1DCF96"/>
<stop offset="0.432292" stop-color="#53A9DA"/>
<stop offset="0.838542" stop-color="#5D5FEF"/>
<stop offset="0.958333" stop-color="#7879F1"/>
</linearGradient>
</defs>
</svg>
